<?xml version="1.0" encoding="UTF-8"?>
<!DOCTYPE svg PUBLIC "-//W3C//DTD SVG 1.1//EN" "http://www.w3.org/Graphics/SVG/1.1/DTD/svg11.dtd">
<svg version="1.1" xmlns="http://www.w3.org/2000/svg" xmlns:xlink="http://www.w3.org/1999/xlink" x="0" y="0" width="662.775" height="426.999" viewBox="0, 0, 662.775, 426.999">
  <g id="Calque_1" transform="translate(-50.87, -8.007)">
    <g>
      <g>
        <path d="M59.2,143.282 L58.342,353.486 L180.175,421.267 L303.724,353.486 L302.008,138.992 L246.239,75.502 L244.523,21.449 L120.117,86.656 L120.117,103.815 L59.2,143.282 z" fill="#F7FFF7"/>
        <path d="M59.2,143.282 L58.342,353.486 L180.175,421.267 L303.724,353.486 L302.008,138.992 L246.239,75.502 L244.523,21.449 L120.117,86.656 L120.117,103.815 L59.2,143.282 z" fill-opacity="0" stroke="#000000" stroke-width="1"/>
      </g>
      <g>
        <path d="M311.447,137.728 C311.441,137.415 311.421,137.104 311.385,136.792 C311.376,136.715 311.372,136.638 311.361,136.562 C311.308,136.18 311.231,135.802 311.132,135.427 C311.116,135.368 311.096,135.312 311.079,135.253 C310.989,134.939 310.883,134.63 310.761,134.323 C310.726,134.237 310.691,134.152 310.655,134.066 C310.526,133.77 310.383,133.48 310.223,133.195 C310.192,133.139 310.164,133.081 310.132,133.026 C309.938,132.696 309.724,132.374 309.488,132.063 C309.44,132.001 309.387,131.944 309.338,131.883 C309.196,131.706 309.057,131.528 308.9,131.358 L251.141,68.685 L251.141,17.667 C251.141,14.209 249.293,11.014 246.294,9.292 C243.297,7.569 239.606,7.58 236.616,9.32 L115.985,79.598 C113.015,81.328 111.188,84.507 111.188,87.946 L111.188,97.214 L55.669,129.559 C55.651,129.569 55.635,129.582 55.617,129.593 C55.516,129.653 55.421,129.721 55.322,129.785 C55.14,129.902 54.957,130.017 54.786,130.143 C54.708,130.201 54.635,130.267 54.559,130.327 C54.372,130.473 54.188,130.621 54.015,130.778 C54.003,130.789 53.991,130.797 53.979,130.808 C53.924,130.858 53.878,130.915 53.824,130.966 C53.65,131.134 53.48,131.304 53.32,131.481 C53.256,131.554 53.198,131.63 53.136,131.704 C52.989,131.879 52.846,132.055 52.713,132.239 C52.647,132.329 52.588,132.422 52.526,132.514 C52.409,132.688 52.295,132.862 52.19,133.042 C52.126,133.151 52.069,133.263 52.009,133.374 C51.92,133.543 51.833,133.713 51.752,133.887 C51.695,134.012 51.642,134.14 51.591,134.268 C51.524,134.435 51.459,134.603 51.401,134.772 C51.354,134.908 51.311,135.046 51.27,135.184 C51.221,135.353 51.176,135.523 51.135,135.695 C51.102,135.835 51.072,135.975 51.045,136.116 C51.012,136.296 50.984,136.477 50.96,136.659 C50.943,136.794 50.926,136.927 50.914,137.061 C50.897,137.261 50.888,137.461 50.883,137.662 C50.881,137.743 50.87,137.824 50.87,137.906 L50.87,355.067 C50.87,358.505 52.698,361.685 55.668,363.415 L176.3,433.693 C176.329,433.71 176.361,433.721 176.39,433.737 C176.733,433.933 177.086,434.112 177.454,434.265 C177.462,434.269 177.471,434.271 177.48,434.275 C177.826,434.418 178.183,434.535 178.547,434.638 C178.642,434.664 178.736,434.687 178.83,434.71 C179.118,434.782 179.412,434.84 179.709,434.885 C179.809,434.901 179.909,434.919 180.008,434.93 C180.388,434.976 180.771,435.006 181.162,435.006 C181.554,435.006 181.938,434.976 182.317,434.93 C182.417,434.919 182.516,434.901 182.615,434.885 C182.913,434.84 183.206,434.783 183.495,434.71 C183.589,434.686 183.684,434.664 183.778,434.638 C184.142,434.535 184.5,434.418 184.845,434.275 C184.854,434.271 184.862,434.269 184.871,434.265 C185.238,434.112 185.592,433.933 185.935,433.737 C185.964,433.721 185.996,433.709 186.025,433.693 L306.657,363.415 C309.627,361.685 311.454,358.505 311.454,355.067 L311.454,137.906 C311.458,137.846 311.448,137.788 311.447,137.728 z M231.821,34.476 L231.821,66.907 L150.081,114.525 C145.472,117.211 143.911,123.125 146.598,127.736 C149.282,132.345 155.198,133.905 159.809,131.22 L239.638,84.713 L286.545,135.61 L183.01,195.928 L130.51,138.963 L130.51,93.498 L231.821,34.476 z M111.188,132.272 L92.029,130.737 L111.188,119.576 L111.188,132.272 z M292.137,349.516 L190.826,408.538 L190.826,360.064 C190.826,354.73 186.5,350.404 181.165,350.404 C175.831,350.404 171.505,354.73 171.505,360.064 L171.505,408.538 L70.194,349.516 L70.194,148.372 L116.308,152.064 L171.505,211.956 L171.505,321.421 C171.505,326.756 175.831,331.082 181.165,331.082 C186.5,331.082 190.826,326.756 190.826,321.421 L190.826,213.736 L292.137,154.715 L292.137,349.516 z" fill="#292F36"/>
        <path d="M256.446,175.849 C257.019,176.787 257.617,177.765 258.232,178.77 C271.765,200.875 276.57,209.657 276.57,214.901 C276.57,232.717 262.076,253.665 244.259,261.596 C226.441,269.529 211.945,261.487 211.944,243.67 C211.945,238.424 216.755,225.351 230.302,191.164 C230.911,189.627 231.503,188.134 232.07,186.7 L256.446,175.849 z M244.258,191.734 C239.073,204.821 228.404,231.749 227.465,237.058 C227.624,246.111 235.096,250.157 244.259,246.078 C253.419,242 260.891,231.302 261.05,222.107 C260.112,217.632 249.431,200.184 244.258,191.734 z" fill="#292F36"/>
        <path d="M51.713,190.959 C55.351,191.836 58.688,193.58 62.007,195.243 C71.736,200.531 80.697,208.722 87.84,218.161 C93.953,218.139 97.526,215.808 97.522,211.693 C97.518,207.434 100.966,205.854 105.223,208.163 C105.225,208.165 105.228,208.166 105.23,208.167 C109.485,210.48 112.935,215.802 112.939,220.059 C112.945,226.888 109.977,231.65 104.518,234.011 C112.236,238.457 121.233,247.899 128.739,259.482 C141.341,278.938 144.752,296.395 136.679,300.093 C133.786,301.411 129.848,300.796 125.281,298.313 C118.09,294.405 109.697,285.979 102.403,275.45 C99.331,290.895 92.449,309.883 83.324,319.094 C81.905,320.525 79.464,320.531 76.843,319.106 L51.713,305.448 L51.713,290.03 L72.462,301.307 C81.889,289.353 88.75,264.108 88.75,251.938 C88.75,237.193 76.752,218.675 62.006,210.66 C58.676,209.019 58.345,208.708 54.063,207.547 C53.301,207.341 52.496,207.359 51.713,207.265 L51.713,190.959 z M103.45,248.84 C103.211,250.689 104.931,257.668 111.274,267.458 C116.651,275.757 122.304,281.279 125.278,282.895 C125.434,282.98 125.564,283.043 125.668,283.089 C125.904,281.236 124.181,274.254 117.837,264.457 C112.465,256.168 106.817,250.652 103.844,249.036 C103.686,248.951 103.555,248.887 103.45,248.84 z" fill="#292F36"/>
      </g>
      <path d="M330.857,253.312 L330.857,155.336 L371.483,155.336 Q414.764,155.336 414.764,204.431 Q414.764,253.312 369.904,253.312 z M359.28,245.201 L366.745,245.201 Q377.009,245.201 380.957,236.336 Q384.905,227.472 384.905,204.288 Q384.905,181.104 380.993,172.275 Q377.081,163.446 366.745,163.446 L359.28,163.446 z" fill="#292F36"/>
      <path d="M471.827,155.336 L499.103,253.312 L470.535,253.312 L464.721,232.066 L435.221,232.066 L428.976,253.312 L417.851,253.312 L446.849,155.336 z M438.02,222.232 L462.066,222.232 L450.509,178.807 z" fill="#292F36"/>
      <path d="M535.279,155.336 L535.279,253.312 L506.855,253.312 L506.855,155.336 z" fill="#292F36"/>
      <path d="M552.29,253.312 L552.29,155.336 L594.423,155.336 Q610.86,155.336 620.694,162.262 Q630.527,169.189 630.527,180.817 Q630.527,198.617 609.425,204.001 Q620.263,208.02 623.457,212.829 Q626.651,217.638 627.8,231.491 Q629.163,248 633.326,253.312 L602.462,253.312 Q599.519,246.493 599.519,236.3 L599.376,230.486 L599.232,223.165 Q599.232,206.226 585.594,206.226 L580.714,206.226 L580.714,253.312 z M580.714,198.115 L586.456,198.115 Q602.606,198.115 602.606,181.247 Q602.606,164.38 586.456,164.38 L580.714,164.38 z" fill="#292F36"/>
      <path d="M713.645,155.336 L689.743,217.136 L689.743,253.312 L661.32,253.312 L661.32,217.136 L634.906,155.336 L664.406,155.336 L684.36,202.565 L702.304,155.336 z" fill="#292F36"/>
      <path d="M331.203,347.064 L331.203,277.748 Q335.723,277.748 349.738,276.681 L349.738,301.31 Q354.918,294.556 361.266,294.556 Q379.445,294.556 379.445,319.744 Q379.445,348.181 357.813,348.181 Q347.606,348.181 340.395,338.584 L335.824,347.064 z M355.527,302.021 Q349.383,302.021 349.383,319.795 Q349.383,340.717 355.375,340.717 Q360.606,340.717 360.606,329.799 L360.91,317.256 L360.555,310.197 Q359.742,302.021 355.527,302.021 z" fill="#292F36"/>
      <path d="M410.371,294.556 Q435.762,294.556 435.762,321.369 Q435.762,348.181 410.371,348.181 Q384.93,348.181 384.93,321.369 Q384.93,294.556 410.371,294.556 z M410.32,299.076 Q404.176,299.076 404.176,321.369 Q404.176,343.662 410.32,343.662 Q416.516,343.662 416.516,321.369 Q416.516,299.076 410.32,299.076 z" fill="#292F36"/>
      <path d="M471.258,296.029 L471.258,301.767 L463.031,301.767 L463.031,337.974 Q463.031,341.377 465.215,341.377 Q466.789,341.377 467.094,339.092 L472.375,339.599 Q470.192,347.623 458.461,347.623 Q444.496,347.623 444.496,335.74 L444.496,301.767 L438.301,301.767 L438.301,296.029 L444.496,296.029 L444.496,286.99 Q454.094,284.349 463.031,279.373 L463.031,296.029 z" fill="#292F36"/>
      <g>
        <path d="M59.2,143.282 L59.2,143.282" fill="#FFFFFF"/>
        <path d="M59.2,143.282 L59.2,143.282" fill-opacity="0" stroke="#808080" stroke-width="1"/>
      </g>
    </g>
  </g>
</svg>
